<svg width="1143" height="297" viewBox="0 0 1143 297" fill="none" xmlns="http://www.w3.org/2000/svg">
<mask id="mask0_322_17" style="mask-type:alpha" maskUnits="userSpaceOnUse" x="0" y="0" width="1143" height="297">
<rect width="1142.02" height="296.308" rx="16.4615" fill="#C4C4C4"/>
</mask>
<g mask="url(#mask0_322_17)">
<rect width="1142.02" height="296.308" rx="16.4615" fill="#98D8FF"/>
<path opacity="0.15" d="M751.353 212.677C630.138 125.598 463.09 227.355 330.702 158.442C261.82 122.587 247.851 90.2317 198.421 36.7445C166.717 2.43752 163.695 -3.53496 133.604 -28.0728C103.513 -52.6106 48.9448 -80.9849 48.9448 -80.9849V-170.935H1473.6V428.294H1133.64C1133.64 428.294 952.067 431.123 865.114 356.863C812.228 311.697 813.403 257.254 751.353 212.677Z" fill="white"/>
<path opacity="0.15" d="M800.295 183.87C679.081 96.7903 512.033 221.035 379.644 152.122C310.762 116.267 274.702 -10.8029 254.64 -48.3558C243.646 -68.9327 226.861 -87.4519 199.596 -101.856C172.332 -116.26 97.8872 -109.793 97.8872 -109.793V-199.743H1522.55V361.86H1203.75C1203.75 361.86 980.196 369.062 907.442 317.473C843.948 272.449 862.346 228.446 800.295 183.87Z" fill="white"/>
</g>
</svg>
